<?xml version="1.0" encoding="UTF-8"?>
<!DOCTYPE svg PUBLIC "-//W3C//DTD SVG 1.1//EN" "http://www.w3.org/Graphics/SVG/1.1/DTD/svg11.dtd">
<!-- Creator: CorelDRAW 2021 (64 Bit) -->
<svg xmlns="http://www.w3.org/2000/svg" xml:space="preserve" width="4000px" height="4000px" version="1.1" style="shape-rendering:geometricPrecision; text-rendering:geometricPrecision; image-rendering:optimizeQuality; fill-rule:evenodd; clip-rule:evenodd"
viewBox="0 0 4000 4000"
 xmlns:xlink="http://www.w3.org/1999/xlink"
 xmlns:xodm="http://www.corel.com/coreldraw/odm/2003">
 <defs>
  <style type="text/css">
   <![CDATA[
    .fil1 {fill:#34A853}
    .fil0 {fill:#4285F4}
    .fil3 {fill:#E94235}
    .fil2 {fill:#FABB05}
   ]]>
  </style>
 </defs>
 <g id="Camada_x0020_1">
  <metadata id="CorelCorpID_0Corel-Layer"/>
  <path class="fil0" d="M2423.97 2210.56l-353.42 -262.47c62.82,-61.53 115.54,-138.21 158.12,-230.04l-700.35 0 0 -430.98 1215.51 0 3.37 101.57c6.73,200.9 -48.26,401.24 -164.43,601.58 -47.52,82.13 -100.45,155.57 -158.8,220.34z"/>
  <path class="fil1" d="M2378.04 2301.9l-353.42 -262.47c-127.59,124.99 -296.85,187.48 -507.43,187.48 -229.89,0 -425.45,-71.15 -587.67,-213.44l-216.38 418.34c39.52,27.9 81,53.51 124.46,76.81 194.17,103.82 414.15,156.01 659.38,156.01 369.63,0 663.13,-120.82 881.06,-362.73z"/>
  <path class="fil2" d="M713.14 2431.81l216.38 -418.34c-8.85,-7.77 -17.61,-15.75 -26.27,-23.94 -170.59,-160.49 -255.89,-360.84 -255.89,-601.58 0,-181.15 49.91,-339.21 149.99,-473.92l-392.87 -240.79c-145.5,207.8 -218.41,444.46 -218.41,709.66 0,233.45 57.8,450.62 172.84,652.65 92.06,162.09 210.05,294.44 354.23,396.26z"/>
  <path class="fil3" d="M404.48 673.24l392.87 240.79c28.59,-38.47 61.27,-75.05 98.05,-109.71 162.18,-153.76 360.27,-230.64 593.72,-230.64 273.3,0 512.36,108.87 717.19,326.61l323.24 -319.87c-280.59,-303.04 -629.09,-454.56 -1044.92,-454.56 -402.92,0 -729.52,140.86 -980.93,422.57 -36.16,40.38 -69.23,81.98 -99.22,124.81z"/>
  <path class="fil1" d="M2370.55 2298.44l1311.22 930.94c0,1.1 0.01,2.2 0.01,3.3 0,208.2 -72.4,375.43 -216.62,502.81 -137.48,121.78 -312.01,182.39 -523.01,182.39 -342.32,0 -600.46,-174.53 -775.55,-524.14l387.21 -233.45c115.04,215.49 247.48,323.24 396.76,323.24 69.58,0 131.31,-20.21 185.74,-61.17 60.61,-44.33 90.91,-101.01 90.91,-169.48 0,-71.83 -40.4,-150.39 -121.21,-236.81 -31.42,-34.24 -100.45,-94.85 -205.95,-182.39 -197.54,-161.62 -332.22,-283.39 -402.93,-364.2 -51.15,-57.62 -93.34,-114.63 -126.58,-171.04z"/>
  <path class="fil0" d="M2416.48 2205.66l1311.22 930.95c-0.96,-192.96 -86.25,-375.92 -255.33,-548.9 -33.67,-35.36 -139.73,-127.95 -317.62,-277.79 -185.75,-157.12 -297.43,-261.5 -335.59,-312.01 -27.5,-36.48 -40.96,-74.64 -40.96,-115.6 0,-48.26 23,-88.11 68.46,-118.41 40.4,-26.38 85.3,-39.84 135.24,-39.84 122.9,0 243.55,84.17 361.96,252.53l340.08 -300.8c-223.35,-259.82 -455.68,-389.45 -697.55,-389.45 -179.01,0 -332.77,56.12 -460.72,168.91 -134.69,116.72 -202.03,263.76 -202.03,441.09 0,101.15 30.9,204.21 92.84,309.32z"/>
 </g>
</svg>
